<?xml version="1.0" encoding="utf-8"?>
<!-- Generator: Adobe Illustrator 26.0.1, SVG Export Plug-In . SVG Version: 6.00 Build 0)  -->
<svg version="1.1" id="Layer_1" xmlns="http://www.w3.org/2000/svg" xmlns:xlink="http://www.w3.org/1999/xlink" x="0px" y="0px"
	 viewBox="0 0 107.91 107.93" style="enable-background:new 0 0 107.91 107.93;" xml:space="preserve">
<style type="text/css">
	.st0{fill:#FFFFFF;}
</style>
<g>
	<path class="st0" d="M37.19,13.09c-0.17,0.09-0.32,0.16-0.5,0.24c-1,0.46-1.65,0.49-2.67,0c-0.85-0.4-1.78-0.97-2.57-1.41
		c-0.49-0.28-0.71-0.26-1.38,0.11l-0.46,0.25l1.14,2.06c0.61,1.12,0.8,1.1,1.9,0.63l0.2,0.37l-3.51,1.93l-0.2-0.37
		c1.03-0.72,1.09-0.82,0.47-1.94l-2.89-5.24c-0.61-1.12-0.78-1.08-1.88-0.62l-0.2-0.37l3.35-1.84c0.96-0.53,1.67-0.76,2.35-0.71
		c0.73,0.04,1.41,0.44,1.85,1.24c0.62,1.13,0.29,2.24-0.45,3.19c0.46,0.28,1.51,0.85,2.23,1.22c0.87,0.43,1.3,0.62,1.78,0.78
		c0.56,0.19,0.95,0.16,1.29,0.08L37.19,13.09z M29.99,11.49c0.68-0.38,1.06-0.72,1.24-1.18c0.3-0.66,0.22-1.3-0.17-2.01
		c-0.77-1.41-1.99-1.4-3-0.85c-0.38,0.21-0.58,0.39-0.62,0.51c-0.07,0.16-0.03,0.31,0.15,0.65l1.77,3.22L29.99,11.49z"/>
	<path class="st0" d="M44.37,8.39c0.03,0.4,0.09,2,0.07,2.47l-6.98,2.11l-0.12-0.4c1.3-0.5,1.37-0.66,1.01-1.84l-1.72-5.67
		c-0.39-1.28-0.57-1.3-1.67-1.08l-0.12-0.4l4.39-1.33c1.35-0.41,1.91-0.59,2.07-0.66C41.43,1.94,41.82,3,42.1,3.74l-0.41,0.2
		c-0.28-0.45-0.51-0.71-0.76-0.96c-0.37-0.4-0.73-0.41-1.6-0.14l-1.36,0.41c-0.45,0.13-0.46,0.19-0.33,0.6l0.96,3.17l1.59-0.48
		c1.08-0.33,1.08-0.56,0.96-1.59l0.44-0.13l0.9,2.96l-0.44,0.13c-0.5-0.98-0.66-1.09-1.69-0.77l-1.58,0.48l0.87,2.86
		c0.3,1,0.65,1,1.37,0.79l1.34-0.4c0.88-0.27,0.98-0.44,1.18-0.91c0.18-0.38,0.3-1.06,0.38-1.56L44.37,8.39z"/>
	<path class="st0" d="M50.15,2.58c-0.37-0.96-0.9-1.88-2.3-1.71c-1.16,0.13-1.47,1.03-1.38,1.81c0.12,1.03,0.84,1.47,2.15,1.97
		c1.9,0.72,2.75,1.31,2.91,2.73c0.18,1.57-1.04,2.91-2.96,3.14c-0.89,0.1-1.7-0.06-2.34-0.23c-0.17-0.4-0.46-1.4-0.66-2.19
		l0.45-0.17c0.41,0.96,1.22,2.18,2.77,2.01c1.07-0.12,1.64-0.95,1.53-1.92c-0.13-1.15-0.8-1.54-2.19-2.1
		c-1.66-0.67-2.63-1.28-2.79-2.67c-0.15-1.33,0.8-2.71,2.77-2.93c0.83-0.1,1.68,0.03,2,0.06c0.12,0.53,0.25,1.12,0.48,2.07
		L50.15,2.58z"/>
	<path class="st0" d="M63.41,1.2c-0.95-0.01-1.31,0.2-1.39,0.89c-0.04,0.34-0.12,0.97-0.22,2.34l-0.12,1.62
		c-0.12,1.52-0.39,2.68-1.32,3.52c-0.76,0.68-1.79,0.83-2.82,0.75c-0.87-0.07-1.78-0.32-2.4-0.88c-0.84-0.76-1.2-1.82-1.07-3.57
		l0.29-3.81c0.1-1.35-0.01-1.44-1.2-1.64L53.19,0l3.93,0.3l-0.03,0.42c-1.2-0.02-1.33,0.09-1.43,1.44L55.37,5.9
		c-0.17,2.18,0.77,3.46,2.57,3.6c2.12,0.16,2.9-1.1,3.09-3.58l0.12-1.53c0.1-1.38,0.1-1.95,0.1-2.35c0.01-0.68-0.32-0.96-1.42-1.1
		l0.03-0.42l3.59,0.27L63.41,1.2z"/>
	<path class="st0" d="M71.01,13.33l0.14-0.4c1.2,0.3,1.27,0.24,1.8-1.28l2.09-5.75c-2.09,2.17-5.41,5.53-6.35,6.59l-0.37-0.13
		c-0.02-1.46-0.21-5.92-0.36-8.86c-2.02,4.85-2.44,5.96-2.54,6.23c-0.27,0.79,0.04,1.04,0.96,1.48l-0.14,0.4l-3.35-1.21l0.14-0.4
		c0.85,0.21,1.25,0.16,1.64-0.56C65,8.86,65.2,8.36,67.42,3.34c0.32-0.71,0.27-1-0.93-1.57l0.14-0.4l2.46,0.89l0.54,8.28l5.93-5.95
		l2.47,0.89l-0.14,0.4c-1.26-0.3-1.47-0.23-1.79,0.77l-1.9,5.44c-0.49,1.53-0.47,1.62,0.72,2.19l-0.14,0.4L71.01,13.33z"/>
	<path class="st0" d="M83.16,17.7c-0.29,0.27-1.49,1.33-1.87,1.62l-6.05-4.06l0.23-0.35c1.22,0.69,1.38,0.64,2.06-0.38l3.3-4.92
		c0.74-1.11,0.65-1.26-0.23-1.98l0.23-0.35l3.81,2.56c1.17,0.79,1.66,1.1,1.82,1.19c-0.2,0.32-0.77,1.29-1.17,1.98l-0.42-0.19
		c0.17-0.5,0.22-0.84,0.26-1.2c0.08-0.54-0.15-0.82-0.9-1.33L83.08,9.5c-0.39-0.26-0.44-0.24-0.68,0.12l-1.85,2.75l1.38,0.93
		c0.93,0.63,1.12,0.48,1.84-0.26l0.39,0.26l-1.72,2.57l-0.39-0.26c0.44-1.01,0.42-1.2-0.47-1.8l-1.37-0.92l-1.66,2.48
		c-0.59,0.87-0.36,1.13,0.25,1.56l1.16,0.78c0.76,0.51,0.96,0.48,1.45,0.34c0.41-0.1,1.02-0.44,1.44-0.69L83.16,17.7z"/>
	<path class="st0" d="M90.08,20.72c0.66,0.72,0.58,1.87-0.16,2.55c-0.76,0.7-1.91,0.67-2.57-0.04c-0.7-0.76-0.63-1.9,0.13-2.61
		C88.23,19.94,89.38,19.95,90.08,20.72z"/>
	<path class="st0" d="M94.76,37.05c-0.09-0.17-0.16-0.32-0.24-0.5c-0.47-1-0.5-1.64-0.01-2.67c0.4-0.86,0.96-1.79,1.4-2.58
		c0.27-0.5,0.26-0.71-0.11-1.38l-0.25-0.46l-2.06,1.14c-1.12,0.62-1.1,0.8-0.62,1.91l-0.37,0.2l-1.94-3.5l0.37-0.2
		c0.72,1.02,0.83,1.09,1.94,0.47l5.24-2.9c1.12-0.62,1.07-0.79,0.62-1.89l0.37-0.2l1.86,3.35c0.53,0.96,0.77,1.67,0.72,2.35
		c-0.04,0.73-0.44,1.41-1.24,1.85c-1.13,0.63-2.24,0.3-3.2-0.44c-0.28,0.46-0.84,1.51-1.21,2.24c-0.43,0.87-0.62,1.3-0.78,1.79
		c-0.18,0.57-0.16,0.95-0.07,1.29L94.76,37.05z M96.34,29.84c0.38,0.68,0.72,1.06,1.18,1.23c0.66,0.3,1.31,0.22,2.01-0.17
		c1.4-0.78,1.4-1.99,0.84-3c-0.21-0.38-0.39-0.57-0.52-0.62c-0.16-0.07-0.31-0.03-0.65,0.16l-3.21,1.78L96.34,29.84z"/>
	<path class="st0" d="M99.5,44.23c-0.4,0.03-2,0.09-2.47,0.08l-2.14-6.97l0.4-0.12c0.51,1.3,0.67,1.36,1.84,1l5.67-1.74
		c1.28-0.39,1.3-0.57,1.07-1.68l0.4-0.12l1.34,4.39c0.41,1.35,0.6,1.9,0.67,2.07c-0.35,0.12-1.41,0.51-2.15,0.8l-0.2-0.41
		c0.45-0.28,0.71-0.51,0.96-0.76c0.4-0.38,0.4-0.74,0.14-1.6l-0.42-1.36c-0.14-0.44-0.19-0.46-0.6-0.33l-3.17,0.97l0.49,1.59
		c0.33,1.08,0.57,1.08,1.59,0.96l0.14,0.44l-2.95,0.91l-0.14-0.45c0.98-0.5,1.08-0.66,0.77-1.69l-0.48-1.58l-2.85,0.87
		c-1,0.31-0.99,0.65-0.79,1.37l0.41,1.33c0.27,0.88,0.44,0.98,0.91,1.18c0.38,0.18,1.06,0.3,1.56,0.37L99.5,44.23z"/>
	<path class="st0" d="M105.32,49.97c0.95-0.37,1.87-0.9,1.7-2.3c-0.14-1.16-1.04-1.46-1.81-1.37c-1.03,0.12-1.47,0.84-1.96,2.15
		c-0.71,1.9-1.3,2.75-2.72,2.92c-1.56,0.19-2.92-1.03-3.15-2.95c-0.11-0.89,0.05-1.7,0.22-2.34c0.4-0.17,1.39-0.47,2.19-0.67
		l0.17,0.45c-0.96,0.42-2.18,1.23-1.99,2.78c0.13,1.07,0.95,1.64,1.92,1.52c1.15-0.14,1.54-0.8,2.09-2.2
		c0.66-1.67,1.27-2.63,2.66-2.8c1.33-0.16,2.71,0.79,2.94,2.76c0.1,0.83-0.02,1.68-0.05,2c-0.53,0.12-1.12,0.25-2.07,0.49
		L105.32,49.97z"/>
	<path class="st0" d="M106.75,63.21c0.01-0.95-0.21-1.31-0.89-1.39c-0.34-0.04-0.97-0.12-2.34-0.21l-1.61-0.12
		c-1.53-0.11-2.68-0.38-3.53-1.31c-0.68-0.76-0.83-1.79-0.76-2.82c0.06-0.87,0.31-1.78,0.87-2.4c0.75-0.85,1.82-1.21,3.57-1.08
		l3.81,0.28c1.35,0.1,1.44-0.02,1.64-1.2l0.42,0.03l-0.28,3.93l-0.42-0.03c0.01-1.2-0.1-1.33-1.44-1.43l-3.74-0.27
		c-2.18-0.16-3.45,0.79-3.58,2.58c-0.15,2.12,1.11,2.89,3.6,3.07l1.53,0.11c1.38,0.1,1.95,0.1,2.35,0.1c0.68,0,0.96-0.32,1.1-1.42
		l0.42,0.03l-0.26,3.59L106.75,63.21z"/>
	<path class="st0" d="M94.66,70.86l0.4,0.14c-0.3,1.2-0.23,1.27,1.29,1.8l5.76,2.07c-2.17-2.08-5.55-5.39-6.62-6.32l0.13-0.37
		c1.46-0.02,5.91-0.23,8.85-0.4c-4.86-2-5.97-2.41-6.24-2.51c-0.8-0.27-1.04,0.04-1.48,0.97l-0.4-0.14l1.19-3.35l0.4,0.14
		c-0.21,0.85-0.16,1.25,0.56,1.63c0.59,0.31,1.1,0.5,6.12,2.71c0.71,0.32,1,0.26,1.56-0.94l0.4,0.14l-0.88,2.46l-8.28,0.57l5.97,5.9
		l-0.88,2.47l-0.4-0.14c0.29-1.27,0.22-1.47-0.78-1.79l-5.45-1.88c-1.53-0.48-1.62-0.47-2.19,0.73l-0.4-0.14L94.66,70.86z"/>
	<path class="st0" d="M90.33,83.03c-0.27-0.29-1.34-1.49-1.63-1.86l4.04-6.07l0.35,0.23c-0.69,1.22-0.63,1.38,0.39,2.06l4.93,3.29
		c1.11,0.74,1.26,0.64,1.98-0.23l0.35,0.23l-2.54,3.82c-0.78,1.17-1.09,1.67-1.18,1.83c-0.32-0.2-1.29-0.77-1.98-1.16l0.19-0.42
		c0.5,0.17,0.84,0.22,1.2,0.26c0.54,0.07,0.82-0.15,1.32-0.9l0.79-1.19c0.26-0.39,0.24-0.44-0.12-0.68l-2.76-1.84l-0.92,1.38
		c-0.62,0.94-0.48,1.12,0.27,1.84l-0.26,0.39l-2.57-1.71l0.26-0.39c1.01,0.44,1.2,0.42,1.8-0.48l0.92-1.37l-2.48-1.65
		c-0.87-0.58-1.13-0.36-1.56,0.26l-0.77,1.16c-0.51,0.76-0.48,0.96-0.34,1.45c0.1,0.41,0.44,1.01,0.7,1.44L90.33,83.03z"/>
	<path class="st0" d="M87.35,89.95c-0.71,0.66-1.87,0.59-2.55-0.15c-0.7-0.76-0.68-1.9,0.03-2.57c0.76-0.7,1.9-0.64,2.61,0.12
		C88.12,88.09,88.11,89.25,87.35,89.95z"/>
	<path class="st0" d="M71.02,94.7c0.17-0.1,0.32-0.16,0.5-0.25c0.99-0.47,1.64-0.51,2.67-0.02c0.86,0.4,1.79,0.96,2.58,1.39
		c0.5,0.27,0.71,0.25,1.38-0.12l0.46-0.26l-1.15-2.05c-0.62-1.11-0.8-1.1-1.91-0.62l-0.21-0.37l3.5-1.96l0.21,0.37
		c-1.02,0.73-1.08,0.83-0.46,1.94L81.51,98c0.62,1.11,0.79,1.07,1.89,0.61l0.21,0.37l-3.34,1.87c-0.96,0.54-1.66,0.78-2.34,0.73
		c-0.73-0.04-1.41-0.43-1.86-1.23c-0.63-1.13-0.31-2.24,0.43-3.2c-0.46-0.27-1.52-0.84-2.24-1.21c-0.87-0.42-1.3-0.61-1.79-0.77
		c-0.57-0.18-0.95-0.16-1.29-0.07L71.02,94.7z M78.23,96.25c-0.68,0.38-1.05,0.73-1.23,1.19c-0.3,0.67-0.21,1.31,0.18,2.01
		c0.78,1.4,2,1.39,3.01,0.83c0.38-0.21,0.57-0.39,0.62-0.52c0.07-0.16,0.03-0.31-0.16-0.65l-1.79-3.21L78.23,96.25z"/>
	<path class="st0" d="M63.85,99.47c-0.03-0.4-0.1-1.99-0.09-2.47l6.96-2.16l0.12,0.4c-1.3,0.51-1.36,0.67-1,1.85l1.75,5.66
		c0.4,1.28,0.58,1.3,1.68,1.07l0.12,0.4l-4.38,1.36c-1.35,0.42-1.9,0.6-2.07,0.67c-0.12-0.35-0.52-1.41-0.81-2.15l0.41-0.21
		c0.28,0.45,0.52,0.7,0.77,0.96c0.38,0.4,0.74,0.4,1.6,0.13l1.36-0.42c0.44-0.14,0.46-0.19,0.33-0.6l-0.98-3.17l-1.59,0.49
		c-1.07,0.33-1.08,0.57-0.95,1.6l-0.44,0.14l-0.92-2.95l0.44-0.14c0.51,0.97,0.67,1.08,1.7,0.76l1.58-0.49l-0.88-2.85
		c-0.31-1-0.65-0.99-1.37-0.78l-1.33,0.41c-0.87,0.27-0.98,0.44-1.18,0.91c-0.18,0.38-0.3,1.07-0.37,1.56L63.85,99.47z"/>
	<path class="st0" d="M58.12,105.32c0.37,0.95,0.91,1.87,2.31,1.7c1.16-0.14,1.46-1.04,1.36-1.82c-0.13-1.03-0.85-1.47-2.16-1.96
		c-1.9-0.7-2.76-1.29-2.93-2.71c-0.19-1.56,1.02-2.92,2.94-3.16c0.89-0.11,1.7,0.05,2.34,0.21c0.17,0.4,0.47,1.39,0.68,2.18
		l-0.45,0.18c-0.42-0.96-1.23-2.18-2.78-1.99c-1.07,0.13-1.64,0.96-1.52,1.92c0.14,1.15,0.81,1.53,2.21,2.09
		c1.67,0.66,2.63,1.26,2.81,2.65c0.16,1.33-0.79,2.71-2.75,2.95c-0.83,0.1-1.68-0.02-2-0.04c-0.13-0.53-0.26-1.12-0.5-2.07
		L58.12,105.32z"/>
	<path class="st0" d="M44.87,106.8c0.95,0,1.31-0.21,1.39-0.9c0.04-0.34,0.11-0.97,0.21-2.35l0.11-1.62
		c0.11-1.53,0.37-2.68,1.3-3.54c0.75-0.68,1.79-0.84,2.82-0.77c0.87,0.06,1.78,0.3,2.41,0.86c0.85,0.75,1.21,1.81,1.09,3.56
		l-0.26,3.82c-0.09,1.35,0.02,1.45,1.21,1.63l-0.03,0.42l-3.94-0.27l0.03-0.42c1.2,0.01,1.33-0.1,1.42-1.45l0.26-3.74
		c0.15-2.19-0.8-3.46-2.59-3.58c-2.13-0.15-2.89,1.12-3.06,3.61l-0.11,1.53c-0.1,1.38-0.09,1.95-0.09,2.36
		c0,0.68,0.32,0.96,1.43,1.09l-0.03,0.42l-3.59-0.25L44.87,106.8z"/>
	<path class="st0" d="M37.21,94.72l-0.14,0.4c-1.2-0.3-1.27-0.23-1.79,1.29l-2.05,5.77c2.07-2.18,5.37-5.57,6.3-6.64l0.37,0.13
		c0.03,1.46,0.25,5.91,0.42,8.85c1.99-4.87,2.4-5.98,2.49-6.25c0.27-0.8-0.05-1.04-0.98-1.47l0.14-0.4l3.35,1.18l-0.14,0.4
		c-0.85-0.2-1.25-0.15-1.63,0.57c-0.3,0.59-0.5,1.1-2.69,6.13c-0.32,0.72-0.26,1.01,0.95,1.56l-0.14,0.4l-2.46-0.87l-0.6-8.27
		l-5.88,5.99l-2.48-0.87l0.14-0.4c1.27,0.29,1.47,0.21,1.79-0.79l1.86-5.45c0.48-1.53,0.46-1.62-0.74-2.19l0.14-0.4L37.21,94.72z"/>
	<path class="st0" d="M25.02,90.45c0.29-0.28,1.48-1.34,1.85-1.63l6.08,4.02l-0.23,0.35c-1.22-0.68-1.38-0.63-2.06,0.4l-3.27,4.94
		c-0.74,1.11-0.64,1.27,0.24,1.97l-0.23,0.35l-3.83-2.53c-1.18-0.78-1.67-1.09-1.83-1.17c0.19-0.32,0.76-1.29,1.15-1.99l0.42,0.19
		c-0.17,0.5-0.22,0.84-0.25,1.2c-0.07,0.54,0.16,0.82,0.91,1.32l1.19,0.79c0.39,0.26,0.44,0.24,0.68-0.13l1.83-2.77l-1.39-0.92
		c-0.94-0.62-1.12-0.47-1.84,0.28l-0.39-0.26l1.7-2.58l0.39,0.26c-0.43,1.01-0.42,1.2,0.49,1.79l1.38,0.91l1.65-2.49
		c0.58-0.88,0.35-1.13-0.26-1.56l-1.16-0.77c-0.76-0.5-0.96-0.47-1.45-0.33c-0.41,0.11-1.01,0.45-1.44,0.7L25.02,90.45z"/>
	<path class="st0" d="M18.09,87.5c-0.67-0.71-0.6-1.87,0.14-2.55c0.76-0.71,1.9-0.69,2.57,0.02c0.71,0.76,0.65,1.9-0.11,2.61
		C19.95,88.26,18.79,88.25,18.09,87.5z"/>
	<path class="st0" d="M13.27,71.19c0.1,0.17,0.16,0.32,0.25,0.5c0.47,0.99,0.51,1.64,0.03,2.67c-0.39,0.86-0.95,1.8-1.38,2.59
		c-0.27,0.5-0.25,0.71,0.12,1.38l0.26,0.46l2.05-1.16c1.11-0.63,1.09-0.81,0.61-1.91l0.37-0.21l1.97,3.49l-0.37,0.21
		c-0.73-1.02-0.83-1.08-1.94-0.45l-5.21,2.95c-1.11,0.63-1.07,0.79-0.6,1.89l-0.37,0.21l-1.88-3.33c-0.54-0.95-0.78-1.66-0.74-2.34
		c0.04-0.73,0.43-1.41,1.22-1.86c1.12-0.63,2.23-0.32,3.2,0.42c0.27-0.46,0.83-1.52,1.2-2.25c0.42-0.87,0.61-1.31,0.76-1.79
		c0.18-0.57,0.15-0.95,0.06-1.29L13.27,71.19z M11.75,78.41c-0.38-0.68-0.73-1.05-1.19-1.22c-0.67-0.3-1.31-0.21-2.01,0.19
		c-1.4,0.79-1.38,2.01-0.81,3.01c0.21,0.38,0.39,0.57,0.52,0.62c0.16,0.07,0.31,0.03,0.65-0.16l3.2-1.81L11.75,78.41z"/>
	<path class="st0" d="M8.48,64.04c0.4-0.03,1.99-0.11,2.47-0.1l2.19,6.96l-0.4,0.13c-0.52-1.3-0.68-1.36-1.85-0.99l-5.65,1.78
		c-1.27,0.4-1.3,0.58-1.06,1.69l-0.4,0.13L2.4,69.24c-0.42-1.35-0.61-1.9-0.68-2.07c0.35-0.13,1.41-0.52,2.15-0.82l0.21,0.41
		c-0.45,0.28-0.7,0.52-0.95,0.77c-0.4,0.38-0.4,0.74-0.13,1.6l0.43,1.36c0.14,0.44,0.19,0.46,0.61,0.33l3.16-1l-0.5-1.59
		c-0.34-1.07-0.58-1.08-1.6-0.94l-0.14-0.44l2.95-0.93l0.14,0.44c-0.97,0.51-1.08,0.67-0.75,1.7l0.5,1.57l2.85-0.9
		c1-0.32,0.99-0.66,0.78-1.38l-0.42-1.33c-0.27-0.87-0.45-0.98-0.92-1.17C9.68,64.68,9,64.57,8.5,64.5L8.48,64.04z"/>
	<path class="st0" d="M2.62,58.34c-0.95,0.38-1.86,0.92-1.69,2.32c0.15,1.16,1.05,1.46,1.82,1.36c1.03-0.13,1.46-0.85,1.95-2.17
		c0.7-1.9,1.28-2.76,2.69-2.94c1.56-0.2,2.92,1,3.17,2.92c0.11,0.89-0.04,1.7-0.2,2.34c-0.4,0.17-1.39,0.48-2.18,0.68L8.01,62.4
		c0.96-0.42,2.17-1.24,1.97-2.79c-0.14-1.07-0.96-1.63-1.93-1.51c-1.15,0.15-1.53,0.81-2.08,2.21c-0.65,1.67-1.25,2.64-2.64,2.81
		c-1.32,0.17-2.71-0.77-2.96-2.74c-0.11-0.83,0.01-1.68,0.03-2c0.53-0.13,1.12-0.26,2.07-0.5L2.62,58.34z"/>
	<path class="st0" d="M1.09,45.1c0,0.95,0.22,1.31,0.9,1.38c0.34,0.04,0.97,0.11,2.35,0.2l1.62,0.11c1.53,0.1,2.68,0.36,3.54,1.28
		c0.69,0.75,0.85,1.78,0.78,2.82c-0.06,0.87-0.3,1.79-0.85,2.41c-0.75,0.85-1.81,1.22-3.56,1.11l-3.82-0.25
		c-1.35-0.09-1.44,0.03-1.63,1.22L0,55.34l0.26-3.94l0.42,0.03c0,1.2,0.11,1.33,1.46,1.42l3.74,0.24c2.19,0.14,3.45-0.81,3.57-2.61
		c0.14-2.13-1.13-2.89-3.62-3.05l-1.53-0.1c-1.38-0.09-1.95-0.08-2.35-0.08c-0.68,0-0.95,0.33-1.09,1.43l-0.42-0.03l0.23-3.59
		L1.09,45.1z"/>
	<path class="st0" d="M13.13,37.38l-0.4-0.14c0.29-1.2,0.22-1.27-1.3-1.79l-5.77-2.03c2.19,2.06,5.59,5.34,6.66,6.27l-0.13,0.37
		c-1.46,0.03-5.91,0.28-8.84,0.46C8.22,42.5,9.33,42.9,9.6,43c0.8,0.26,1.03-0.05,1.47-0.98l0.4,0.14l-1.17,3.36l-0.4-0.14
		c0.2-0.85,0.15-1.25-0.58-1.63c-0.59-0.3-1.1-0.49-6.14-2.66c-0.72-0.31-1.01-0.25-1.55,0.95l-0.4-0.14l0.86-2.46l8.27-0.63
		l-6.01-5.85l0.86-2.48l0.4,0.14c-0.28,1.27-0.21,1.47,0.79,1.78l5.46,1.84c1.54,0.47,1.62,0.45,2.18-0.75l0.4,0.14L13.13,37.38z"/>
	<path class="st0" d="M17.36,25.17c0.28,0.29,1.35,1.47,1.64,1.85l-4,6.1l-0.35-0.23c0.68-1.22,0.62-1.39-0.41-2.06l-4.95-3.25
		c-1.12-0.73-1.27-0.63-1.97,0.25l-0.35-0.23l2.52-3.84c0.77-1.18,1.08-1.68,1.17-1.83c0.32,0.19,1.3,0.76,1.99,1.15l-0.18,0.42
		c-0.5-0.17-0.85-0.21-1.2-0.25c-0.55-0.07-0.82,0.16-1.32,0.91l-0.78,1.19c-0.25,0.39-0.23,0.44,0.13,0.68l2.77,1.82l0.91-1.39
		c0.62-0.94,0.47-1.13-0.28-1.84l0.25-0.39l2.58,1.69l-0.25,0.39c-1.01-0.43-1.2-0.41-1.79,0.49l-0.9,1.38l2.5,1.64
		c0.88,0.58,1.13,0.35,1.56-0.27l0.76-1.17c0.5-0.77,0.47-0.96,0.33-1.46c-0.11-0.41-0.45-1.01-0.71-1.43L17.36,25.17z"/>
	<path class="st0" d="M20.28,18.22c0.71-0.67,1.86-0.6,2.55,0.13c0.71,0.75,0.7,1.9-0.01,2.57c-0.75,0.71-1.9,0.66-2.61-0.1
		C19.53,20.09,19.53,18.94,20.28,18.22z"/>
</g>
</svg>
