<?xml version="1.0" encoding="utf-8"?>
<!-- Generator: Adobe Illustrator 26.0.1, SVG Export Plug-In . SVG Version: 6.00 Build 0)  -->
<svg version="1.1" id="Layer_1" xmlns="http://www.w3.org/2000/svg" xmlns:xlink="http://www.w3.org/1999/xlink" x="0px" y="0px"
	 viewBox="0 0 44.33 10.82" style="enable-background:new 0 0 44.33 10.82;" xml:space="preserve">
<style type="text/css">
	.st0{fill:#FFFFFF;}
</style>
<g>
	<g>
		<g>
			<path class="st0" d="M43.85,6.55c0.64,0,0.64-1,0-1C43.21,5.55,43.2,6.55,43.85,6.55L43.85,6.55z"/>
		</g>
	</g>
	<g>
		<path class="st0" d="M20.4,10.82c-0.18,0-0.35-0.09-0.44-0.26c-0.12-0.22-0.06-0.49,0.13-0.64c1.91-1.47,5.45-3.26,9.84-5.01
			c-5.67,1.04-10.52,3.36-13.18,4.83c-0.24,0.13-0.53,0.05-0.67-0.18c-0.14-0.23-0.07-0.53,0.16-0.68c1.03-0.66,2.97-2.38,4.24-3.7
			c-6.69,2.33-18.71,6.3-20.18,5.27C0.11,10.32,0,10.11,0,9.88c-0.01-2.01,12.22-7.03,19.51-9.85c0.26-0.1,0.55,0.03,0.65,0.29
			c0.1,0.26-0.03,0.55-0.29,0.65C11.41,4.23,2.46,8.24,1.15,9.69c0.03,0,0.07,0,0.1,0c2.24,0,11.87-2.95,20.65-6.06
			c0.2-0.07,0.42-0.01,0.56,0.16c0.13,0.17,0.15,0.4,0.03,0.58c-0.35,0.56-1.3,1.58-2.38,2.6c3.62-1.6,8.53-3.25,13.85-3.54
			c0.23-0.03,0.47,0.16,0.52,0.4c0.05,0.24-0.09,0.49-0.32,0.57c-3.61,1.27-6.85,2.63-9.39,3.9c5.35-1.68,10.56-2.77,16.37-3.43
			c0.28-0.03,0.52,0.17,0.55,0.44c0.03,0.27-0.17,0.52-0.44,0.55C33.9,6.7,27.52,8.22,20.57,10.79
			C20.52,10.81,20.46,10.82,20.4,10.82z"/>
	</g>
</g>
</svg>
